<svg xmlns="http://www.w3.org/2000/svg" height="2048" preserveAspectRatio="none" style="display: block;" version="1.1" viewBox="0 0 2048 2048" width="2048">
<path d="M 0 0 L 2048 0 L 2048 2048 L 0 2048 L 0 0 z" fill="rgb(0,0,22)" transform="translate(0,0)"></path>
<path d="M 854.299 769.254 C 932.097 749.852 1011.07 731.75 1089.12 713.191 L 1092.17 716.09 C 1069.35 729.877 1026.52 754.851 1007.74 772.171 C 983.984 794.08 958.257 828.492 938.638 854.124 L 875.403 936.506 L 633.738 1251.99 C 600.734 1186.81 568.121 1121.42 535.9 1055.84 C 488.413 961.991 441.446 867.876 395.003 773.502 C 445.163 774.551 498.203 773.525 548.768 773.83 C 587.91 854.684 626.385 935.859 664.19 1017.35 L 854.299 769.254 z" fill="rgb(207,239,43)" transform="translate(0,0)"></path>
<path d="M 1281.01 773.784 L 1448.66 773.662 C 1475.92 773.538 1503.18 773.66 1530.43 774.027 C 1556.64 774.4 1582.8 774.253 1608.51 780.213 C 1648.78 789.546 1662.83 824.15 1651.26 861.95 C 1624.57 948.448 1526.72 961.724 1450.85 978.043 C 1433.39 981.797 1299.41 1007.27 1296.98 1018.29 C 1301.39 1021.62 1366.61 1020.54 1375.89 1020.59 L 1557.66 1020.65 L 1518.59 1073.73 C 1513.41 1080.75 1502.47 1096.44 1496.88 1102.02 L 1085.64 1102.24 C 1106.99 1068.05 1128.93 1030.72 1156.87 1001.47 C 1202.24 953.971 1265.94 941.333 1327.89 929.966 C 1358.35 924.377 1388.93 919.252 1419.3 913.178 C 1441.7 908.698 1471.69 903.966 1490.17 890.097 C 1497.88 884.307 1506.63 874.365 1507.58 864.308 C 1507.87 861.304 1507.87 859.09 1505.73 856.796 C 1492.72 842.837 1328.55 847.999 1304.25 848.116 C 1296.79 829.778 1286.38 793.531 1281.01 773.784 z" fill="rgb(207,239,43)" transform="translate(0,0)"></path>
<path d="M 1137.62 775.018 L 1249.39 774.862 C 1210.71 835.342 1167.09 897.574 1126.63 957.053 L 1064.24 1048.13 C 1052.64 1064.89 1038.55 1085.81 1026.14 1102.02 L 955.48 1102.12 C 946.433 1102.13 928.904 1102.69 920.38 1102.02 C 914.219 1102.28 907.454 1102.22 901.239 1102.29 C 904.601 1096.73 907.813 1091.85 911.443 1086.47 C 919.505 1071.31 940.748 1041.68 950.999 1025.79 C 983.676 975.053 1016.81 924.614 1050.4 874.479 C 1052.31 871.686 1052.46 871.68 1053.54 868.31 L 1052.34 868.319 L 1049.14 872.194 C 1038.75 881.929 1032.28 884.409 1017.93 886.126 C 1000.79 888.177 983.619 890.027 966.457 891.918 C 981.744 865.959 999.03 841.188 1014.48 815.589 C 1048.99 807.173 1109.92 794.162 1137.62 775.018 z" fill="rgb(207,239,43)" transform="translate(0,0)"></path>
<path d="M 899.631 1177.14 C 919.954 1176.99 941.134 1176.64 961.001 1177.31 C 979.374 1179.22 978.104 1192.65 972.944 1206.3 C 968.265 1218.67 964.438 1226.13 953.449 1233.43 C 953.099 1233.54 952.749 1233.65 952.4 1233.77 C 939.97 1238.01 894.934 1235.79 879.408 1235.88 C 886.192 1216.52 892.715 1196.34 899.631 1177.14 z" fill="rgb(242,237,229)" transform="translate(0,0)"></path>
<path d="M 915.939 1191.95 C 926.588 1192.32 937.446 1191.77 948.007 1192.31 C 954.36 1192.64 954.734 1196.59 953.202 1201.51 C 950.809 1209.17 949.509 1213.61 943.693 1219.2 C 933.973 1221.44 917.165 1220.29 906.238 1220.38 C 909.479 1211.4 913.019 1201.05 915.939 1191.95 z" fill="rgb(0,0,22)" transform="translate(0,0)"></path>
<path d="M 968.725 1275.77 L 989.942 1275.84 C 984.631 1294.1 976.334 1316.89 970.19 1335.49 C 958.965 1335.77 947.161 1335.51 935.893 1335.44 C 931.006 1320.84 924.817 1304.9 919.516 1290.29 C 914.13 1304.64 909.067 1320.72 904.151 1335.35 L 883.164 1335.38 L 903.369 1276.09 L 936.093 1276.19 C 941.727 1291.8 947.271 1307.44 952.723 1323.12 C 958.581 1308.42 963.803 1291.01 968.725 1275.77 z" fill="rgb(242,237,229)" transform="translate(0,0)"></path>
<path d="M 1142.09 1276.23 C 1157.03 1275.2 1174.49 1275.73 1189.51 1276.04 C 1197.97 1276.22 1202.5 1282.16 1201 1290.49 C 1194.55 1326.3 1161.28 1306.36 1138.72 1315.66 C 1137.41 1316.21 1135.76 1317.75 1135.57 1319.53 C 1136.18 1320.55 1137.33 1320.63 1138.44 1320.62 C 1155.39 1320.59 1172.33 1320.71 1189.28 1320.97 C 1187.64 1325.9 1186.2 1330.72 1184.64 1335.66 L 1164.95 1335.71 L 1111.15 1335.43 C 1116.56 1315.44 1120.61 1299.46 1144.5 1299.26 C 1148.89 1298.59 1174.38 1300.11 1176.39 1298.35 C 1190.13 1286.36 1156.97 1292.34 1152.47 1290.89 C 1148.67 1289.67 1146.67 1292.49 1145.13 1295.01 C 1144.27 1296.42 1125.7 1295.83 1123.16 1295.84 C 1127.75 1284.12 1129.68 1280.27 1142.09 1276.23 z" fill="rgb(242,237,229)" transform="translate(0,0)"></path>
<path d="M 1314.11 1177.03 L 1335.8 1177.04 C 1329.7 1194.25 1322.08 1220.03 1315.45 1235.86 L 1293.83 1235.99 L 1301.2 1214.29 C 1289.12 1214.2 1277.03 1214.27 1264.95 1214.51 C 1262.51 1221.5 1260.05 1228.87 1257.49 1235.79 L 1236.07 1235.86 L 1255.06 1180.14 C 1255.39 1179.12 1255.73 1178.1 1256.08 1177.09 L 1277.34 1177.1 L 1270.03 1199.06 L 1306.5 1199.1 C 1309.06 1191.76 1311.44 1184.33 1314.11 1177.03 z" fill="rgb(242,237,229)" transform="translate(0,0)"></path>
<path d="M 1137.41 1177.1 C 1144.66 1176.96 1151.9 1176.92 1159.15 1177 C 1157.1 1182.1 1155.34 1186.58 1153.48 1191.74 C 1150.01 1202.31 1143.51 1229.61 1131.78 1232.64 C 1122.2 1235.12 1052.95 1244.05 1060.97 1223.01 C 1064.23 1214.45 1073.42 1186.91 1077.39 1177.24 L 1099.01 1177.13 C 1094.26 1189.84 1087.53 1208.08 1083.99 1221.02 C 1135.98 1220.87 1118.33 1224.77 1137.41 1177.1 z" fill="rgb(242,237,229)" transform="translate(0,0)"></path>
<path d="M 1007.29 1290.29 C 1019.42 1290.02 1042.11 1288.59 1053.74 1292.32 C 1060.99 1294.65 1057.26 1305.69 1055.5 1310.88 C 1050.62 1325.18 1051.16 1331.11 1035.56 1335.23 C 1027.25 1335.84 1018.88 1335.8 1010.55 1335.7 C 1001.96 1335.59 980.594 1338.02 984.818 1323.01 L 985.246 1321.53 C 989.531 1306.18 990.916 1294.1 1007.29 1290.29 z" fill="rgb(242,237,229)" transform="translate(0,0)"></path>
<path d="M 1012.66 1303.02 C 1020.78 1302.88 1028.9 1302.82 1037.03 1302.86 C 1034.97 1309.37 1032.53 1316.89 1029.94 1323.16 C 1021.82 1323.23 1013.7 1323.2 1005.59 1323.09 C 1007.67 1316.68 1009.77 1309.01 1012.66 1303.02 z" fill="rgb(0,0,22)" transform="translate(0,0)"></path>
<path d="M 832.786 1177.1 L 857.014 1177.09 C 855.102 1179.33 853.137 1181.54 851.122 1183.7 C 835.832 1201.14 819.841 1218.41 804.634 1235.85 L 775.669 1235.93 C 773.591 1223.83 770.706 1212.45 768.281 1200.49 L 767.158 1194.99 C 765.972 1189.01 764.471 1183.19 763.334 1177.16 C 770.94 1177.22 778.383 1177.17 786 1177.37 C 786.243 1178.57 786.514 1179.81 786.735 1181 C 787.88 1187.32 788.942 1193.66 789.921 1200 C 791.086 1207.81 792.494 1215.49 793.639 1223.36 C 805.894 1208.37 819.946 1191.59 832.786 1177.1 z" fill="rgb(242,237,229)" transform="translate(0,0)"></path>
<path d="M 1169.04 1176.87 C 1194.38 1176.79 1219.73 1176.85 1245.07 1177.04 C 1243.78 1180.37 1242.37 1183.59 1241.23 1187.01 L 1239.87 1191.11 L 1213.65 1191.18 C 1211.16 1198.79 1208.6 1206.37 1205.96 1213.93 C 1203.42 1221.25 1200.67 1228.51 1198.12 1235.79 L 1176.46 1235.85 C 1181.86 1221.16 1186.27 1206.1 1191.78 1191.45 L 1164.6 1191.42 L 1169.04 1176.87 z" fill="rgb(242,237,229)" transform="translate(0,0)"></path>
<path d="M 1043.62 1176.92 C 1051.87 1176.94 1060.12 1177.08 1068.37 1177.33 C 1059.44 1184.82 1050.81 1191.36 1041.55 1198.42 C 1035.87 1202.77 1030.73 1206.99 1024.89 1211.3 C 1021.71 1219.4 1018.77 1227.59 1016.06 1235.86 L 994.097 1235.82 C 997.127 1227.64 1000.05 1219.42 1002.87 1211.16 C 998.687 1204.33 984.741 1183.11 981.927 1177.3 C 989.809 1177.05 997.869 1177.16 1005.77 1177.14 C 1010.02 1184.83 1013.32 1191.27 1017.13 1199.28 C 1026.15 1192.27 1035.03 1184.45 1043.62 1176.92 z" fill="rgb(242,237,229)" transform="translate(0,0)"></path>
<path d="M 1097.52 1275.93 C 1105.68 1275.81 1113.83 1275.83 1121.98 1275.98 C 1115.88 1295.75 1107.96 1315.79 1102.25 1335.17 L 1082.94 1335.2 C 1082.87 1335.17 1082.8 1335.14 1082.73 1335.11 C 1082.31 1334.87 1081.89 1334.62 1081.47 1334.38 C 1084.26 1324.72 1092.14 1301.74 1094.95 1292.93 C 1081.09 1292.86 1057.84 1295.6 1085.06 1282.58 C 1089.22 1280.59 1093.51 1278.23 1097.52 1275.93 z" fill="rgb(242,237,229)" transform="translate(0,0)"></path>
<path d="M 865.227 1176.91 C 872.653 1176.91 880.078 1176.99 887.503 1177.13 C 880.524 1194.48 873.021 1217.57 867.135 1235.72 C 860.531 1236.07 852.24 1235.86 845.486 1235.86 C 852.383 1216.41 858.383 1196.43 865.227 1176.91 z" fill="rgb(242,237,229)" transform="translate(0,0)"></path>
<path d="M 1089.12 713.191 C 1093.01 712.449 1098.66 710.723 1102.7 709.688 C 1099.15 711.963 1095.92 714.108 1092.17 716.09 L 1089.12 713.191 z" fill="rgb(210,231,80)" transform="translate(0,0)"></path>
<metadata><recraft-signature>{"signed_by": "recraft", "signature_b64": "hOn2mWuZeOFES886jcqLeGJKIjnPUxMPdutaHUXbynm++NHD4XX2NjUQvSl/smJuSls7eTxeNNhvsR16DHSbBA==", "signing_algo": "Ed25519", "generation_timestamp": 1784374004, "identifier": "b9ee453e-f030-43ec-b13d-900c0f30f312"}</recraft-signature></metadata></svg>